# xmcd CD database file
#
# Track frame offsets:
#	150
#	25398
#	46462
#	66382
#	89420
#	116295
#	142657
#	170419
#	195530
#	223198
#
# Disc length: 3238 seconds
#
# Revision: 0
# Processed by: cddbd v1.5.2PL0 Copyright (c) Steve Scherf et al.
# Submitted via: CDex 1.70beta2
#
DISCID=8c0ca40a
DTITLE=Bodil Niska - Night Time
DYEAR=2008
DGENRE=Jazz
TTITLE0=Over the Rainbow
TTITLE1=Watch What Happens
TTITLE2=Fiin Gammel
TTITLE3=C'est Si Bon
TTITLE4=The Nearness of You
TTITLE5=Young at Heart
TTITLE6=You Don't Know What Love Is
TTITLE7=The Best Things in Life Are Free
TTITLE8=Come Sunday
TTITLE9=My One And Only Love
EXTD=YEAR: 2008
EXTT0=
EXTT1=
EXTT2=
EXTT3=
EXTT4=
EXTT5=
EXTT6=
EXTT7=
EXTT8=
EXTT9=
PLAYORDER=
